<svg id="f739d3c9-d3be-495c-b976-b43def078b7f" data-name="Layer 1" xmlns="http://www.w3.org/2000/svg" width="299.9" height="83" viewBox="0 0 299.9 83"><defs><style>.f2468fee-313b-47d0-b97f-8e22ba29dc97{fill:#fff;}.e280dc28-cd8a-4893-8261-70aa37eb6303,.ecd38e86-13d1-47fc-a40b-76d6cf7cc124{fill:#00539e;}.ac986db3-ef44-4fce-9287-035261bd0649{fill:#69207e;}.ecd38e86-13d1-47fc-a40b-76d6cf7cc124{fill-rule:evenodd;}</style></defs><title>sr-group-logo-whiteBG-300</title><path class="f2468fee-313b-47d0-b97f-8e22ba29dc97" d="M286.2,10.4H13.8a3.48,3.48,0,0,0-3.5,3.5V69.3a3.48,3.48,0,0,0,3.5,3.5H286.1a3.48,3.48,0,0,0,3.5-3.5V13.8A3.37,3.37,0,0,0,286.2,10.4Z"/><path class="e280dc28-cd8a-4893-8261-70aa37eb6303" d="M286.2,0H13.8A13.83,13.83,0,0,0,0,13.8V69.2A13.83,13.83,0,0,0,13.8,83H286.1a13.83,13.83,0,0,0,13.8-13.8V13.8A13.68,13.68,0,0,0,286.2,0Zm9.6,69.3a9.71,9.71,0,0,1-9.7,9.7H13.8a9.71,9.71,0,0,1-9.7-9.7V13.8a9.71,9.71,0,0,1,9.7-9.7H286.1a9.71,9.71,0,0,1,9.7,9.7Z"/><path class="f2468fee-313b-47d0-b97f-8e22ba29dc97" d="M286.2,4.2H13.8a9.71,9.71,0,0,0-9.7,9.7V69.3A9.71,9.71,0,0,0,13.8,79H286.1a9.71,9.71,0,0,0,9.7-9.7V13.8A9.6,9.6,0,0,0,286.2,4.2Zm7.6,65.1a7.6,7.6,0,0,1-7.6,7.6H13.8a7.6,7.6,0,0,1-7.6-7.6V13.8a7.6,7.6,0,0,1,7.6-7.6H286.1a7.6,7.6,0,0,1,7.6,7.6V69.3Z"/><path class="ac986db3-ef44-4fce-9287-035261bd0649" d="M286.2,6.2H13.8a7.6,7.6,0,0,0-7.6,7.6V69.2a7.6,7.6,0,0,0,7.6,7.6H286.1a7.6,7.6,0,0,0,7.6-7.6V13.8A7.45,7.45,0,0,0,286.2,6.2Zm-142,51.6-11.9,15H13.8a3.48,3.48,0,0,1-3.5-3.5V13.8a3.48,3.48,0,0,1,3.5-3.5H286.1a3.48,3.48,0,0,1,3.5,3.5V57.7"/><path class="ecd38e86-13d1-47fc-a40b-76d6cf7cc124" d="M120.4,45.5a8.73,8.73,0,0,0,7.4-4.9c.5-1,1.2-3.2,1.2-7.3,0-6.1-1.9-8.9-4.1-10.5-1.6-1.2-3.3-2.1-9.5-2.1H78.3v40H90.7v-10H109c4.6,0,6.9.1,6.9,5.4v4.6h12.3V54.2c0-4.4-.7-5.5-1.6-6.4S123.7,45.7,120.4,45.5ZM115,39.9c-.5.4-1.2.9-5.1.9H90.7V30.6h19.2c3.4,0,6.8-.1,6.8,4.8,0,2.9-.8,3.9-1.7,4.5"/><path class="ecd38e86-13d1-47fc-a40b-76d6cf7cc124" d="M64.1,36.3c-.5-.1-1-.2-10.5-.3-3.3-.1-6.7,0-10.1-.1-5-.1-5.3-.5-5.6-.7a2.68,2.68,0,0,1-1.4-2.7,2.86,2.86,0,0,1,2-2.9c.2-.1.4-.7,11.6-.7,7,0,7.7.3,8,.3a3.21,3.21,0,0,1,2.7,3.7H73a16.77,16.77,0,0,0-.9-6.8c-1.1-2.7-2.7-4.3-7.4-5.3-.6-.1-3.2-.6-13.4-.6-20.3,0-27.1.4-27.1,12.9,0,5.5,1.4,7.9,2.7,9.2,1,1,2.4,1.9,6.3,2.4.6.1,1,.2,8.6.3,4,.1,7.9.1,11.9.2,1.4,0,2.8,0,4.3.1,2.3.1,4.3.5,4.3,3.5,0,1.8-.7,3-4,3.4-.4,0-3.2.3-10.6.3-4.8,0-6.6-.1-6.6-.1-3.5-.3-4.4-1.5-4.2-4.3H24.6c-.4,7,1.8,9.9,4.5,11.4,1,.6,2.9,1.5,9.9,1.6,1.1,0,4.5.1,7.1.1s4.9,0,10.1-.2c7.1-.3,7.5-.4,8-.4,6.2-.8,10.6-3.3,10.6-12.5-.1-9.5-5-11.2-10.7-11.8"/><path class="e280dc28-cd8a-4893-8261-70aa37eb6303" d="M132.8,35a10.44,10.44,0,0,1,.6-3.8,4.67,4.67,0,0,1,1.8-2.3,6.86,6.86,0,0,1,2.9-1.2,22.09,22.09,0,0,1,3.9-.3h9.6a17.19,17.19,0,0,1,4.4.5,6.51,6.51,0,0,1,2.5,1.3,3.6,3.6,0,0,1,1.1,2.1,11.43,11.43,0,0,1,.3,2.8v.7h-6.3a5.07,5.07,0,0,0-.2-1.3,1.34,1.34,0,0,0-.6-.7,1.69,1.69,0,0,0-1-.3c-.4,0-.8-.1-1.4-.1h-6.9a10.31,10.31,0,0,0-2,.2,1.85,1.85,0,0,0-1.2.7,2.62,2.62,0,0,0-.6,1.3,12.73,12.73,0,0,0-.2,2.2v2.6a12.73,12.73,0,0,0,.2,2.2,2.26,2.26,0,0,0,.6,1.3,3.46,3.46,0,0,0,1.2.7,10.31,10.31,0,0,0,2,.2h6.8a4.87,4.87,0,0,0,1.2-.1,2,2,0,0,0,1.1-.3,2.7,2.7,0,0,0,.8-.7,2.13,2.13,0,0,0,.3-1.2v-.6h-8V36.6H160v5.9a8.16,8.16,0,0,1-.6,3.5,3.9,3.9,0,0,1-1.9,1.9,8.8,8.8,0,0,1-3.2.8c-1.3.1-2.8.1-4.7.1H142a23.76,23.76,0,0,1-3.9-.3,6.86,6.86,0,0,1-2.9-1.2,5.17,5.17,0,0,1-1.8-2.3,10.08,10.08,0,0,1-.6-3.8Z"/><path class="e280dc28-cd8a-4893-8261-70aa37eb6303" d="M162.3,27.7h19.3a9.34,9.34,0,0,1,3.1.4,3.81,3.81,0,0,1,1.9,1.3,4.35,4.35,0,0,1,1,1.9,10.32,10.32,0,0,1,.3,2.6v1.3c0,.7-.1,1.3-.1,1.9a5.27,5.27,0,0,1-.5,1.5,3.84,3.84,0,0,1-1.1,1.1,7.51,7.51,0,0,1-1.8.7v.1a7.37,7.37,0,0,1,1.4.4,2.84,2.84,0,0,1,1.1.8,4.11,4.11,0,0,1,.8,1.3,6.65,6.65,0,0,1,.3,2.1v3.5h-6.4V46.1a3.34,3.34,0,0,0-.6-2.3,2.77,2.77,0,0,0-2.1-.6H168.8v5.4h-6.4V27.7ZM168.8,38h10.6a2.57,2.57,0,0,0,1.8-.5,2.65,2.65,0,0,0,.5-1.7v-.7c0-.9-.2-1.5-.7-1.8a4.32,4.32,0,0,0-2.2-.4h-10V38Z"/><path class="e280dc28-cd8a-4893-8261-70aa37eb6303" d="M190.3,35a10.44,10.44,0,0,1,.6-3.8,4.67,4.67,0,0,1,1.8-2.3,6.86,6.86,0,0,1,2.9-1.2,22.09,22.09,0,0,1,3.9-.3h10.3a23.76,23.76,0,0,1,3.9.3,6.86,6.86,0,0,1,2.9,1.2,5.17,5.17,0,0,1,1.8,2.3A10.08,10.08,0,0,1,219,35v6.2a10.44,10.44,0,0,1-.6,3.8,5.17,5.17,0,0,1-1.8,2.3,6.86,6.86,0,0,1-2.9,1.2,22.09,22.09,0,0,1-3.9.3H199.5a23.76,23.76,0,0,1-3.9-.3,6.86,6.86,0,0,1-2.9-1.2,5.17,5.17,0,0,1-1.8-2.3,10.08,10.08,0,0,1-.6-3.8Zm6.5,4.2a9.2,9.2,0,0,0,.2,1.9,3.92,3.92,0,0,0,.5,1.3,2.1,2.1,0,0,0,1.1.7,5.26,5.26,0,0,0,1.9.2h8.2a9.2,9.2,0,0,0,1.9-.2,3,3,0,0,0,1.1-.7,2.23,2.23,0,0,0,.5-1.3,10.89,10.89,0,0,0,.1-1.9V37a4.42,4.42,0,0,0-.2-1.7,3.1,3.1,0,0,0-.6-1.3,2.55,2.55,0,0,0-1.2-.8,5.62,5.62,0,0,0-2-.3h-7.5a5.62,5.62,0,0,0-2,.3,3.6,3.6,0,0,0-1.2.8,3.1,3.1,0,0,0-.6,1.3,8.81,8.81,0,0,0-.2,1.7Z"/><path class="e280dc28-cd8a-4893-8261-70aa37eb6303" d="M221.3,27.7h6.4V39.8a4.07,4.07,0,0,0,.8,2.8,3.62,3.62,0,0,0,2.8.8h6.3a4.25,4.25,0,0,0,2.8-.8,4.25,4.25,0,0,0,.8-2.8V27.7h6.4V41.1c0,2.6-.7,4.6-2.1,5.8s-3.5,1.9-6.5,1.9h-9.2c-3,0-5.1-.6-6.5-1.9s-2.1-3.2-2.1-5.8V27.7Z"/><path class="e280dc28-cd8a-4893-8261-70aa37eb6303" d="M250.4,27.7h17.4a13.46,13.46,0,0,1,3.8.5,5.75,5.75,0,0,1,2.3,1.5,5.61,5.61,0,0,1,1.2,2.3,12.65,12.65,0,0,1,.3,2.8v1.8a9.86,9.86,0,0,1-.3,2.4,5.12,5.12,0,0,1-1,2.1,6.9,6.9,0,0,1-1.8,1.6,5.81,5.81,0,0,1-2.8.6H256.8v5.3h-6.4Zm6.4,10.4h10a1.65,1.65,0,0,0,1.6-.7,2.77,2.77,0,0,0,.5-1.6V35a2,2,0,0,0-.6-1.6,2.81,2.81,0,0,0-2-.6h-9.4v5.3Z"/><path class="f2468fee-313b-47d0-b97f-8e22ba29dc97" d="M151.2,67.8v3.3h-1.7V67.8l-3.1-5.4h1.9l2.1,3.7h0l2.1-3.7h1.9Z"/><path class="f2468fee-313b-47d0-b97f-8e22ba29dc97" d="M159.5,68.1c0,2.4-.3,3.1-2.9,3.1s-2.9-.8-2.9-3.1.3-3.1,2.9-3.1S159.5,65.7,159.5,68.1Zm-4.3,0c0,1.6.1,2,1.4,2s1.4-.4,1.4-2-.1-2-1.4-2S155.2,66.4,155.2,68.1Z"/><path class="f2468fee-313b-47d0-b97f-8e22ba29dc97" d="M164.8,71.1v-.9h0a1.81,1.81,0,0,1-1.9,1c-1.2,0-2-.4-2-1.7V65h1.5v3.8c0,.9.1,1.2,1,1.2,1.1,0,1.5-.5,1.5-1.5V65h1.5v6.1Z"/><path class="f2468fee-313b-47d0-b97f-8e22ba29dc97" d="M169.1,65v.8h.1a1.54,1.54,0,0,1,1.6-.9c1.3,0,1.6.8,1.6,1.9v.5H171V67c0-.6-.1-1-.7-1-.9,0-1.1.5-1.1,1.3v3.8h-1.5V65Z"/><path class="f2468fee-313b-47d0-b97f-8e22ba29dc97" d="M179,65.9h0a1.89,1.89,0,0,1,1.9-1c2.3,0,2.3,1.4,2.3,3.3s-.2,2.9-2.3,2.9c-.7,0-1.5-.1-1.8-.9H179v3.4h-1.5V65H179Zm2.8,2.4c0-1.4,0-2.2-1.3-2.2-1.5,0-1.5.7-1.5,2.2,0,1.3.2,1.8,1.5,1.8C181.5,70.1,181.8,69.8,181.8,68.3Z"/><path class="f2468fee-313b-47d0-b97f-8e22ba29dc97" d="M188.6,70.4h0c-.3.8-1.2.8-1.9.8-1.4,0-2.3-.3-2.3-1.9s.8-1.9,2.3-1.9c.7,0,1.5,0,1.8.7h0v-.8c0-1-.1-1.3-1.3-1.3-.6,0-1.1.1-1.1.8h-1.5c0-1.8,1.2-1.8,2.6-1.8,1.9,0,2.8.3,2.8,2.3v3.8h-1.5Zm-2.8-1.1c0,.9.3.9,1.3.9.8,0,1.3-.1,1.3-.9s-.6-.9-1.3-.9S185.8,68.4,185.8,69.3Z"/><path class="f2468fee-313b-47d0-b97f-8e22ba29dc97" d="M192.8,65v.8h.1a1.54,1.54,0,0,1,1.6-.9c1.3,0,1.6.8,1.6,1.9v.5h-1.4V67c0-.6-.1-1-.7-1-.9,0-1.1.5-1.1,1.3v3.8h-1.5V65Z"/><path class="f2468fee-313b-47d0-b97f-8e22ba29dc97" d="M196.4,65h.8V63.6h1.5V65H201v1.1h-2.3v3.1c0,.6,0,.8.6.8.8,0,.7-.6.7-1.3h1.3c0,1.8-.4,2.4-2,2.4s-2.1-.4-2.1-1.9V66.1h-.8Z"/><path class="f2468fee-313b-47d0-b97f-8e22ba29dc97" d="M203.7,65v.9h0c.3-.9,1.1-1,1.9-1,1.6,0,2.1.7,2.1,2.1v4h-1.5V67.1c0-.9-.2-1.2-1.1-1.2-1.3,0-1.4.6-1.4,1.7v3.3h-1.5V65Z"/><path class="f2468fee-313b-47d0-b97f-8e22ba29dc97" d="M214.7,69.2c0,1.9-1.1,2-2.8,2-2.3,0-2.8-.7-2.8-3.1,0-2.2.3-3.1,2.8-3.1s2.8.7,2.8,3.4h-4.2c0,1.3,0,1.7,1.3,1.7.8,0,1.4,0,1.4-.9Zm-1.5-1.8c0-1.3-.2-1.3-1.4-1.3s-1.3.3-1.3,1.3Z"/><path class="f2468fee-313b-47d0-b97f-8e22ba29dc97" d="M217.3,65v.8h.1a1.54,1.54,0,0,1,1.6-.9c1.3,0,1.6.8,1.6,1.9v.5h-1.4V67c0-.6-.1-1-.7-1-.9,0-1.1.5-1.1,1.3v3.8h-1.5V65Z"/><path class="f2468fee-313b-47d0-b97f-8e22ba29dc97" d="M227.1,63.7h-1.5V62.5h1.5Zm0,7.4h-1.5V65h1.5Z"/><path class="f2468fee-313b-47d0-b97f-8e22ba29dc97" d="M230.1,65v.9h0c.3-.9,1.1-1,1.9-1,1.6,0,2.1.7,2.1,2.1v4h-1.5V67.1c0-.9-.2-1.2-1.1-1.2-1.3,0-1.4.6-1.4,1.7v3.3h-1.5V65Z"/><path class="f2468fee-313b-47d0-b97f-8e22ba29dc97" d="M241.3,71.1h-1.5V62.4h1.5Z"/><path class="f2468fee-313b-47d0-b97f-8e22ba29dc97" d="M248.4,68.1c0,2.4-.3,3.1-2.9,3.1s-2.9-.8-2.9-3.1.3-3.1,2.9-3.1S248.4,65.7,248.4,68.1Zm-4.3,0c0,1.6.1,2,1.4,2s1.4-.4,1.4-2-.1-2-1.4-2S244.1,66.4,244.1,68.1Z"/><path class="f2468fee-313b-47d0-b97f-8e22ba29dc97" d="M253.8,70.2h0a1.89,1.89,0,0,1-1.9.9c-2.1,0-2.3-1.1-2.3-2.9s.1-3.3,2.3-3.3a1.81,1.81,0,0,1,1.9,1h0l-.1-.9h1.5v6.1c0,2.2-.7,2.7-2.9,2.7-1.5,0-2.6-.3-2.5-2.1h1.4c0,.8.3,1,1.1,1,1.2,0,1.5-.3,1.5-1.3ZM251,67.9c0,1.4,0,2.2,1.3,2.2,1.5,0,1.5-.7,1.5-2.2,0-1.3-.2-1.8-1.5-1.8C251.2,66.1,251,66.4,251,67.9Z"/><path class="f2468fee-313b-47d0-b97f-8e22ba29dc97" d="M258.1,63.7h-1.5V62.5h1.5Zm0,7.4h-1.5V65h1.5Z"/><path class="f2468fee-313b-47d0-b97f-8e22ba29dc97" d="M263.3,66.7c0-.7-.4-.7-1.2-.7s-1.3,0-1.3.8c0,.6.2.6,1.4.7,1.4.1,2.7,0,2.7,1.9,0,1.6-1.3,1.8-2.8,1.8-1.7,0-2.8,0-2.8-2h1.5c0,.9.2,1,1.3,1,.9,0,1.4,0,1.4-.8,0-.5,0-.8-1.5-.8-2.2,0-2.6-.3-2.6-1.9s1.2-1.7,2.8-1.7c1.2,0,2.6,0,2.6,1.7Z"/><path class="f2468fee-313b-47d0-b97f-8e22ba29dc97" d="M265.4,65h.8V63.6h1.5V65H270v1.1h-2.3v3.1c0,.6,0,.8.6.8.8,0,.7-.6.7-1.3h1.3c0,1.8-.4,2.4-2,2.4s-2.1-.4-2.1-1.9V66.1h-.8Z"/><path class="f2468fee-313b-47d0-b97f-8e22ba29dc97" d="M272.6,63.7h-1.5V62.5h1.5Zm0,7.4h-1.5V65h1.5Z"/><path class="f2468fee-313b-47d0-b97f-8e22ba29dc97" d="M279.3,68.8c0,2-.7,2.4-2.8,2.4s-2.7-.6-2.7-3.1c0-2.1.3-3.1,2.7-3.1,1.8,0,2.8.3,2.8,2.2h-1.5c0-.9-.3-1.1-1.3-1.1-1.3,0-1.3.4-1.3,2s0,2,1.3,2,1.3-.2,1.3-1.3Z"/><path class="f2468fee-313b-47d0-b97f-8e22ba29dc97" d="M284.2,66.7c0-.7-.4-.7-1.2-.7s-1.3,0-1.3.8c0,.6.2.6,1.4.7,1.4.1,2.7,0,2.7,1.9,0,1.6-1.3,1.8-2.8,1.8-1.7,0-2.8,0-2.8-2h1.5c0,.9.2,1,1.3,1,.9,0,1.4,0,1.4-.8,0-.5,0-.8-1.5-.8-2.2,0-2.6-.3-2.6-1.9s1.2-1.7,2.8-1.7c1.2,0,2.6,0,2.6,1.7Z"/></svg>